<?xml version="1.0" encoding="utf-8"?>
<!-- Generator: Adobe Illustrator 16.0.0, SVG Export Plug-In . SVG Version: 6.00 Build 0)  -->
<!DOCTYPE svg PUBLIC "-//W3C//DTD SVG 1.1//EN" "http://www.w3.org/Graphics/SVG/1.1/DTD/svg11.dtd">
<svg version="1.1" id="Calque_1" xmlns="http://www.w3.org/2000/svg" xmlns:xlink="http://www.w3.org/1999/xlink" x="0px" y="0px"
	 width="60px" height="60px" viewBox="0 0 60 60" enable-background="new 0 0 60 60" xml:space="preserve">
<rect x="16.915" y="8.737" fill="#E3E3E3" width="42.208" height="42.206"/>
<path fill="#575756" d="M47.845,41.482c-1.081-0.208-1.673-0.312-3.345-0.855c1.156,0.122,5.263,0.401,8.364-1.131
	c3.858-1.909,5.844-5.002,4.01-8.583c-1.731-3.384-4.909-2.366-5.528-2.07c-0.621,0.296-2.489,1.685-1.758,4.137
	c0.803,2.691,3.363,1.506,3.363,1.506c-3.658,1.122-3.981-3.741-1.917-4.892c2.066-1.15,4.041-0.716,5.163,1.527
	c1.121,2.244,1.147,6.637-7.436,8.084c-8.138,1.373-16.682-6.072-23.783-9.08c-11.381-4.817-24.694,4.697-24.694,4.697
	c9.696-5.341,16.565-8.33,33.17,2.148c12.158,7.671,22.298,4.805,22.298,4.805S52.585,42.387,47.845,41.482z"/>
<path fill="#575756" d="M26.922,32.264c0,0,7.793,4.07,5.251,12.524c-1.427,4.745-5.754,5.424-8.384,4.81
	c-1.986-0.464-4.382-2.271-3.502-6.064c0.624-2.696,4.165-2.78,4.165-2.78s-3.163-0.049-3.686,2.834
	c-0.599,3.299,1.427,5.079,3.37,5.312c2.592,0.312,6.185-0.642,7.143-4.581c0.958-3.938-0.036-7.915-4.958-11.176
	c0,0-2.509-2.121-5.297-2.208C21.024,30.935,23.581,30.818,26.922,32.264z"/>
<path fill="#575756" d="M24.097,40.296c0,0,2.483-1.583,3.627,1.377c0,0-0.393-0.463-1.304,0.014
	c-0.911,0.473-2.387-0.572-2.387-0.572s1.011-0.377,1.93,0.018C25.963,41.132,25.4,40.285,24.097,40.296z"/>
<path fill="#575756" d="M23.962,30.91c0,0,10.777,5.016,15.638,3.422c4.46-1.469,4.051-4.697,4.051-4.697s0.401,3.619-3.837,5.154
	c-4.743,1.718-13.934-2.48-15.887-3.295c-2.308-0.963-4.361-1.775-6.376-1.955C17.551,29.539,20.658,29.467,23.962,30.91z"/>
<path fill="#575756" d="M39.706,33.912c0,0-1.418-0.966-0.14-2.578c1.277-1.615,1.451-2.143,1.35-2.573
	c0.075,0.01,2.757,2.131-0.19,4.733c0,0,0.151-1.182,0.049-1.589c0,0-0.737,1.657-1.136,2.105"/>
<path fill="#575756" d="M43.289,29.223c0,0-1.143-1.923,1.045-2.872c0,0-0.271,0.096,0.121,1.087
	c0.396,0.991-0.14,1.731-0.525,2.075c0,0-0.247-0.92-0.119-1.53c0,0-0.4,0.888-0.326,1.342L43.289,29.223z"/>
<path fill="#575756" d="M43.94,30.849c0.061-0.093,0.913-1.817,3.851-0.472c0,0-1.188,0.709-1.598,1.257
	c-0.411,0.55-1.572,0.845-2.337,0.694c0,0,0.947-1.08,1.876-1.38c0,0-1.394,0.265-2.064,0.806
	C43.668,31.754,43.646,31.308,43.94,30.849z"/>
<path fill="#575756" d="M55.38,30.666c0,0-1.628-1.311-3.218,0.477c0,0,0.835-0.119,1.39,0.518c0.558,0.635,1.63,0.557,2.465,0.08
	c0,0-0.994-0.676-1.748-0.598c0,0,1.031-0.198,1.47,0L55.38,30.666z"/>
<path fill="#575756" d="M55.827,29.136c0,0-2.624-2.742,1.231-5.444c0,0-0.279,0.874,0.437,2.146
	c0.717,1.272,1.23,3.061-0.595,4.253c0,0-0.598-2.265-0.398-3.298C56.502,26.792,55.746,27.784,55.827,29.136z"/>
<path fill="#575756" d="M55.531,41.438c0,0,1.384-1.67,4.062-0.089c0,0-0.612,0.011-1.576,0.953
	c-0.684,0.663-3.009,0.038-3.009,0.038s1.582-0.729,2.004-0.745C57.012,41.596,56.543,41.301,55.531,41.438z"/>
<path fill="#575756" d="M32.958,45.072c0,0,1.716,0.011,1.55,2.064c-0.171,2.053-0.02,2.587,0.304,2.889
	c-0.07,0.035-3.477-0.239-2.472-4.042c0,0,0.532,1.068,0.843,1.348c0,0-0.307-1.787-0.225-2.376"/>
<path fill="#575756" d="M30.667,43.857c0,0-0.568-0.921-1.62-0.162c-1.054,0.758-1.39,0.854-1.658,0.776
	c0.004,0.051,1.264,1.798,2.986,0.015c0,0-0.75,0.062-1.002-0.015c0,0,1.062-0.415,1.357-0.654"/>
<path fill="#575756" d="M39.639,12.628c0,0,1.152,0.084,1.804,0.802c1.134,1.247,0.573,1.412,1.246,2.333
	c0.677,0.921,0.696,1.507,4.036,2.003c0,0,0.826,1.025,2.409,1.601c0,0-0.457-0.403-0.528-0.611c0,0,0.534,0.313,1.113,0.501
	c0,0-1.008-1.051-1.495-1.757c-0.484-0.705-1.375-2.146-2.406-2.604c0,0,0.645,0.044,1.269-0.236l-0.475-0.176
	c0,0,0.557-0.252,0.97-0.491c0.413-0.241,1.998-2.574,2.503-3.421c0.506-0.847,0.968-1.288,0.968-1.288s-1.502-0.457-3.337,1.245
	c-1.835,1.7-3.24,3.262-3.24,3.262s0.302-2.801,1.014-4.129c0,0-1.309,0.895-1.8,3.554c0,0-0.714-1.843-2.44-0.973
	C41.248,12.242,40.372,12.287,39.639,12.628z"/>
<path fill="#575756" d="M27.149,22.082c0,0-1.254,0.629-2.143,3.702c-0.888,3.071-1.621,7.571-9.426,8.442
	c-7.569,0.847-10.133-0.106-10.133-0.106s3.287,1.818,9.977,1.197c2.341-0.22,3.37-0.208,2.541,0.674
	c-1.154,1.225-3.992,3.576-9.136,7.033c0,0,6.485-2.831,10.276-6.152c3.792-3.319,5.535-4.215,7.389-4.763
	c1.145-0.337,1.941-0.554,2.509,0.374c0,0,0.286-0.547-0.182-1.033c0,0,4.179-3.205,4.189-5.993c0.011-1.93-0.665-2.628-0.953-3.297
	c-0.137-0.318-0.629-1.7,0.092-2.34c0.429-0.381,0.687-0.507,1.361-0.635c0,0-0.891-0.498-1.843-0.386c0,0-1.082-1.511-2.979-0.377
	C27.107,19.365,27.04,21.609,27.149,22.082z"/>
</svg>
